<svg width="24" height="24" viewBox="0 0 24 24" fill="none" xmlns="http://www.w3.org/2000/svg">
<path d="M6.03328 3.6C5.53623 3.6 5.13328 4.00294 5.13328 4.5C5.13328 4.99706 5.53623 5.4 6.03328 5.4V4.5V3.6ZM6.03328 4.5V5.4H16.1666V4.5V3.6H6.03328V4.5ZM21.4999 9.83333H20.6V10.9H21.4999H22.3999V9.83333H21.4999ZM16.1666 16.2333V15.3333H6.03328V16.2333V17.1333H16.1666V16.2333ZM21.4999 10.9H20.6C20.6 13.3485 18.6151 15.3333 16.1666 15.3333V16.2333V17.1333C19.6092 17.1333 22.3999 14.3426 22.3999 10.9H21.4999ZM16.1666 4.5V5.4C18.6151 5.4 20.6 7.38487 20.6 9.83333H21.4999H22.3999C22.3999 6.39076 19.6092 3.6 16.1666 3.6V4.5Z" fill="white"/>
<path d="M2.5 16.2333L9.7 12.5383V19.9284L2.5 16.2333Z" fill="white"/>
</svg>
